<?xml version="1.0" encoding="UTF-8" standalone="no"?> <!-- Created with Vectornator for iOS (http://vectornator.io/) --><!DOCTYPE svg PUBLIC "-//W3C//DTD SVG 1.1//EN" "http://www.w3.org/Graphics/SVG/1.1/DTD/svg11.dtd">
<svg style="fill-rule:evenodd;clip-rule:evenodd;stroke-linecap:round;stroke-linejoin:round;" xmlns:vectornator="http://vectornator.io" xmlns:xlink="http://www.w3.org/1999/xlink" xmlns="http://www.w3.org/2000/svg" xml:space="preserve" version="1.1" viewBox="0 0 200 200">
<metadata>
<vectornator:setting key="RulersVisible" value="1"/>
<vectornator:setting key="Units" value="Points"/>
<vectornator:setting key="DynamicGuides" value="1"/>
<vectornator:setting key="GuidesVisible" value="1"/>
<vectornator:setting key="CMYKEnabledKey" value="0"/>
<vectornator:setting key="SnapToGuides" value="1"/>
<vectornator:setting key="GridSpacing" value="36"/>
</metadata>
<defs/>
<g id="Untitled" vectornator:layerName="Untitled">
<g opacity="1">
<path stroke="#02884b" stroke-width="5" d="M85.9253+5.21522L23.3024+115.01L35.9092+137.886L162.447+137.218L176.698+114.519L112.855+4.94081L85.9253+5.21522Z" fill="none" stroke-linecap="butt" opacity="1" stroke-linejoin="miter"/>
<path stroke="#02884b" stroke-width="5" d="M24.0283+114.56L125.057+115.023L100.426+72.8473L89.2139+92.6935L111.789+92.8379L61.6916+92.7421L112.734+5.20771" fill="none" stroke-linecap="butt" opacity="1" stroke-linejoin="miter"/>
<path stroke="#02884b" stroke-width="5" d="M162.139+136.721L113.104+50.2281L100.477+72.8028L100.338+72.9027" fill="none" stroke-linecap="butt" opacity="1" stroke-linejoin="miter"/>
</g>
<g opacity="1">
<path stroke="#02884b" stroke-width="5" d="M41.3748+154.693C41.3748+154.693+15.1425+147.643+14.4692+172.173C13.7959+196.705+41.4019+190.48+41.4019+190.48" fill="none" stroke-linecap="butt" opacity="1" stroke-linejoin="miter"/>
<path stroke="#02884b" stroke-width="5" d="M40.9538+163.444C40.9538+163.444+22.8959+157.242+22.8+172.812C22.7042+188.383+40.6362+183.514+40.6362+183.514" fill="none" stroke-linecap="butt" opacity="1" stroke-linejoin="miter"/>
<path stroke="#02884b" stroke-width="5" d="M47.9911+152.151L62.3903+174.052L62.108+194.132" fill="none" stroke-linecap="butt" opacity="1" stroke-linejoin="miter"/>
<path stroke="#02884b" stroke-width="5" d="M56.8607+151.878L65.9185+167.447L74.6287+152.008" fill="none" stroke-linecap="butt" opacity="1" stroke-linejoin="miter"/>
<path stroke="#02884b" stroke-width="5" d="M83.9972+151.935L70.0877+173.451L69.8388+194.087" fill="none" stroke-linecap="butt" opacity="1" stroke-linejoin="miter"/>
<path stroke="#02884b" stroke-width="5" d="M90.0529+153.078L104.453+174.98L104.171+195.059" fill="none" stroke-linecap="butt" opacity="1" stroke-linejoin="miter"/>
<path stroke="#02884b" stroke-width="5" d="M98.9236+152.806L107.981+168.375L116.691+152.935" fill="none" stroke-linecap="butt" opacity="1" stroke-linejoin="miter"/>
<path stroke="#02884b" stroke-width="5" d="M126.059+152.862L112.151+174.378L111.901+195.014" fill="none" stroke-linecap="butt" opacity="1" stroke-linejoin="miter"/>
<path stroke="#02884b" stroke-width="5" d="M145.551+152.846L145.545+178.143C145.545+178.143+146.052+183.519+142.103+184.106C138.936+184.576+134.337+184.331+134.337+184.331" fill="none" stroke-linecap="butt" opacity="1" stroke-linejoin="miter"/>
<path stroke="#02884b" stroke-width="5" d="M153.51+152.755L153.502+184.367C153.502+184.367+154.377+191.085+147.554+191.819C142.083+192.406+134.136+192.1+134.136+192.1" fill="none" stroke-linecap="butt" opacity="1" stroke-linejoin="miter"/>
<path stroke="#02884b" stroke-width="5" d="M184.672+155.279C184.672+155.279+175.798+152.881+170.595+155.228C165.393+157.574+164.146+164.292+164.146+164.292C164.146+164.292+163.388+169.746+167.468+173.116C169.262+174.597+177.559+176.989+177.996+179.357C178.569+182.459+174.601+184.168+172.187+184.41C167.879+184.844+163.311+180.873+163.311+180.873" fill="none" stroke-linecap="butt" opacity="1" stroke-linejoin="miter"/>
<path stroke="#02884b" stroke-width="5" d="M163.467+189.15C163.467+189.15+173.194+193.969+178.87+191.515C184.547+189.061+185.543+182.019+185.543+182.019C185.543+182.019+185.459+175.842+181.006+172.316C179.049+170.768+171.646+168.405+171.169+165.929C170.543+162.684+173.222+160.757+175.857+160.504C180.557+160.05+184.189+162.585+184.189+162.585" fill="none" stroke-linecap="butt" opacity="1" stroke-linejoin="miter"/>
</g>
</g>
</svg>
